<svg xmlns="http://www.w3.org/2000/svg">
  <symbol id="icon-download" viewBox="0 0 256 256">
    <path fill="currentColor" d="M222 144v64a6 6 0 0 1-6 6H40a6 6 0 0 1-6-6v-64a6 6 0 0 1 12 0v58h164v-58a6 6 0 0 1 12 0m-98.24 4.24a6 6 0 0 0 8.48 0l40-40a6 6 0 0 0-8.48-8.48L134 129.51V32a6 6 0 0 0-12 0v97.51L92.24 99.76a6 6 0 0 0-8.48 8.48Z"/>
  </symbol>
  <symbol id="icon-github" viewBox="0 0 256 256">
    <path fill="currentColor" d="M206.13 75.92A57.8 57.8 0 0 0 201.2 29a6 6 0 0 0-5.2-3a57.77 57.77 0 0 0-47 24h-26a57.77 57.77 0 0 0-47-24a6 6 0 0 0-5.2 3a57.8 57.8 0 0 0-4.93 46.92A55.9 55.9 0 0 0 58 104v8a54.06 54.06 0 0 0 50.45 53.87A37.85 37.85 0 0 0 98 192v10H72a26 26 0 0 1-26-26a38 38 0 0 0-38-38a6 6 0 0 0 0 12a26 26 0 0 1 26 26a38 38 0 0 0 38 38h26v18a6 6 0 0 0 12 0v-40a26 26 0 0 1 52 0v40a6 6 0 0 0 12 0v-40a37.85 37.85 0 0 0-10.45-26.13A54.06 54.06 0 0 0 214 112v-8a55.9 55.9 0 0 0-7.87-28.08M202 112a42 42 0 0 1-42 42h-48a42 42 0 0 1-42-42v-8a43.86 43.86 0 0 1 7.3-23.69a6 6 0 0 0 .81-5.76a45.85 45.85 0 0 1 1.43-36.42a45.85 45.85 0 0 1 35.23 21.1a6 6 0 0 0 5.06 2.77h32.34a6 6 0 0 0 5.06-2.76a45.83 45.83 0 0 1 35.23-21.11a45.85 45.85 0 0 1 1.43 36.42a6 6 0 0 0 .79 5.74A43.8 43.8 0 0 1 202 104Z"/>
  </symbol>
  <symbol id="icon-menu" viewBox="0 0 256 256">
    <path fill="currentColor" d="M222 128a6 6 0 0 1-6 6H40a6 6 0 0 1 0-12h176a6 6 0 0 1 6 6M40 70h176a6 6 0 0 0 0-12H40a6 6 0 0 0 0 12m176 116H40a6 6 0 0 0 0 12h176a6 6 0 0 0 0-12"/>
  </symbol>
  <symbol id="icon-caret-down" viewBox="0 0 256 256">
    <path fill="currentColor" d="m212.24 100.24l-80 80a6 6 0 0 1-8.48 0l-80-80a6 6 0 0 1 8.48-8.48L128 167.51l75.76-75.75a6 6 0 0 1 8.48 8.48"/>
  </symbol>
  <symbol id="icon-cube" viewBox="0 0 256 256">
    <path fill="currentColor" d="m222.72 67.9l-88-48.17a13.9 13.9 0 0 0-13.44 0l-88 48.18A14 14 0 0 0 26 80.18v95.64a14 14 0 0 0 7.28 12.27l88 48.18a13.92 13.92 0 0 0 13.44 0l88-48.18a14 14 0 0 0 7.28-12.27V80.18a14 14 0 0 0-7.28-12.28M127 30.25a2 2 0 0 1 1.92 0L212.51 76L128 122.24L43.49 76ZM39 177.57a2 2 0 0 1-1-1.75V86.66l84 46V223Zm177.92 0L134 223v-90.36l84-46v89.16a2 2 0 0 1-1 1.77Z"/>
  </symbol>
  <symbol id="icon-terminal" viewBox="0 0 256 256">
    <path fill="currentColor" d="M126 128a6 6 0 0 1-2.25 4.69l-40 32a6 6 0 0 1-7.5-9.38L110.4 128l-34.15-27.31a6 6 0 1 1 7.5-9.38l40 32A6 6 0 0 1 126 128m50 26h-40a6 6 0 0 0 0 12h40a6 6 0 0 0 0-12m54-98v144a14 14 0 0 1-14 14H40a14 14 0 0 1-14-14V56a14 14 0 0 1 14-14h176a14 14 0 0 1 14 14m-12 0a2 2 0 0 0-2-2H40a2 2 0 0 0-2 2v144a2 2 0 0 0 2 2h176a2 2 0 0 0 2-2Z"/>
  </symbol>
  <symbol id="icon-browser" viewBox="0 0 256 256">
    <path fill="currentColor" d="M216 42H40a14 14 0 0 0-14 14v144a14 14 0 0 0 14 14h176a14 14 0 0 0 14-14V56a14 14 0 0 0-14-14M40 54h176a2 2 0 0 1 2 2v34H38V56a2 2 0 0 1 2-2m176 148H40a2 2 0 0 1-2-2v-98h180v98a2 2 0 0 1-2 2"/>
  </symbol>
  <symbol id="icon-cursor" viewBox="0 0 256 256">
    <path fill="currentColor" d="M90 24v-8a6 6 0 0 1 12 0v8a6 6 0 0 1-12 0m-74 78h8a6 6 0 0 0 0-12h-8a6 6 0 0 0 0 12m109.32-64.63a6 6 0 0 0 8.05-2.69l8-16a6 6 0 0 0-10.74-5.37l-8 16a6 6 0 0 0 2.69 8.06m-96 85.26l-16 8a6 6 0 0 0 5.36 10.74l16-8a6 6 0 1 0-5.36-10.74m188.58 62.78a14 14 0 0 1 0 19.8l-12.69 12.69a14 14 0 0 1-19.8 0l-51.31-51.31a2 2 0 0 0-3.21.54l-17.75 46.24a2 2 0 0 0-.1.24a13.85 13.85 0 0 1-12.78 8.39h-.68A13.85 13.85 0 0 1 87 212.38L34.7 52.3a14 14 0 0 1 17.6-17.6L212.38 87a14 14 0 0 1 1.23 26l-.24.09l-46.25 17.76a2 2 0 0 0-.53 3.21Zm-8.49 8.49l-51.31-51.31a14 14 0 0 1 4.32-22.74l.24-.1L208.91 102a2 2 0 0 0-.26-3.61L48.58 46.11a2.3 2.3 0 0 0-.65-.11a2 2 0 0 0-1.82 2.58l52.27 160.07a1.84 1.84 0 0 0 1.77 1.35a1.81 1.81 0 0 0 1.84-1.09l17.76-46.25l.1-.24a14 14 0 0 1 22.74-4.32l51.31 51.31a2 2 0 0 0 2.83 0l12.68-12.68a2 2 0 0 0 0-2.83"/>
  </symbol>
  <symbol id="icon-lightning" viewBox="0 0 256 256">
    <path fill="currentColor" d="M213.84 118.63a6 6 0 0 0-3.73-4.25l-59.23-22.21l15-75a6 6 0 0 0-10.27-5.27l-112 120a6 6 0 0 0 2.28 9.71l59.23 22.21l-15 75a6 6 0 0 0 3.14 6.52A6.1 6.1 0 0 0 96 246a6 6 0 0 0 4.39-1.91l112-120a6 6 0 0 0 1.45-5.46M106 220.46l11.85-59.28a6 6 0 0 0-3.77-6.8l-55.6-20.85l91.46-98l-11.82 59.29a6 6 0 0 0 3.77 6.8l55.6 20.85Z"/>
  </symbol>
  <symbol id="icon-stack" viewBox="0 0 256 256">
    <path fill="currentColor" d="M229.18 173a6 6 0 0 1-2.16 8.2l-96 56a6 6 0 0 1-6 0l-96-56a6 6 0 0 1 6-10.36l93 54.23l93-54.23a6 6 0 0 1 8.16 2.16M221 122.82l-93 54.23l-93-54.23a6 6 0 0 0-6 10.36l96 56a6 6 0 0 0 6 0l96-56a6 6 0 0 0-6-10.36M26 80a6 6 0 0 1 3-5.18l96-56a6 6 0 0 1 6 0l96 56a6 6 0 0 1 0 10.36l-96 56a6 6 0 0 1-6 0l-96-56A6 6 0 0 1 26 80m17.91 0L128 129.05L212.09 80L128 31Z"/>
  </symbol>
  <symbol id="icon-devices" viewBox="0 0 256 256">
    <path fill="currentColor" d="M224 74h-18V64a22 22 0 0 0-22-22H40a22 22 0 0 0-22 22v96a22 22 0 0 0 22 22h114v10a22 22 0 0 0 22 22h48a22 22 0 0 0 22-22V96a22 22 0 0 0-22-22M40 170a10 10 0 0 1-10-10V64a10 10 0 0 1 10-10h144a10 10 0 0 1 10 10v10h-18a22 22 0 0 0-22 22v74Zm194 22a10 10 0 0 1-10 10h-48a10 10 0 0 1-10-10V96a10 10 0 0 1 10-10h48a10 10 0 0 1 10 10Zm-100 16a6 6 0 0 1-6 6H88a6 6 0 0 1 0-12h40a6 6 0 0 1 6 6m80-96a6 6 0 0 1-6 6h-16a6 6 0 0 1 0-12h16a6 6 0 0 1 6 6"/>
  </symbol>
  <symbol id="icon-mobile" viewBox="0 0 256 256">
    <path fill="currentColor" d="M176 18H80a22 22 0 0 0-22 22v176a22 22 0 0 0 22 22h96a22 22 0 0 0 22-22V40a22 22 0 0 0-22-22M70 62h116v132H70Zm10-32h96a10 10 0 0 1 10 10v10H70V40a10 10 0 0 1 10-10m96 196H80a10 10 0 0 1-10-10v-10h116v10a10 10 0 0 1-10 10"/>
  </symbol>
  <symbol id="icon-desktop" viewBox="0 0 256 256">
    <path fill="currentColor" d="M208 42H48a22 22 0 0 0-22 22v112a22 22 0 0 0 22 22h74v20H96a6 6 0 0 0 0 12h64a6 6 0 0 0 0-12h-26v-20h74a22 22 0 0 0 22-22V64a22 22 0 0 0-22-22M48 54h160a10 10 0 0 1 10 10v82H38V64a10 10 0 0 1 10-10m160 132H48a10 10 0 0 1-10-10v-18h180v18a10 10 0 0 1-10 10"/>
  </symbol>
  <symbol id="icon-type" viewBox="0 0 256 256">
    <path fill="currentColor" d="M206 56v32a6 6 0 0 1-12 0V62h-60v132h26a6 6 0 0 1 0 12H96a6 6 0 0 1 0-12h26V62H62v26a6 6 0 0 1-12 0V56a6 6 0 0 1 6-6h144a6 6 0 0 1 6 6"/>
  </symbol>
  <symbol id="icon-close" viewBox="0 0 256 256">
    <path fill="currentColor" d="M204.24 195.76a6 6 0 1 1-8.48 8.48L128 136.49l-67.76 67.75a6 6 0 0 1-8.48-8.48L119.51 128L51.76 60.24a6 6 0 0 1 8.48-8.48L128 119.51l67.76-67.75a6 6 0 0 1 8.48 8.48L136.49 128Z"/>
  </symbol>
</svg>
